<svg width="241" height="50" viewBox="0 0 241 50" fill="none" xmlns="http://www.w3.org/2000/svg">
<g clip-path="url(#clip0_1_2804)">
<path d="M25.2829 32.8478C23.8429 32.8487 22.4303 32.4544 21.1988 31.708C19.9674 30.9616 18.9644 29.8915 18.299 28.6145C17.6336 27.3374 17.3314 25.9022 17.4253 24.4653C17.5191 23.0284 18.0055 21.6447 18.8313 20.4651C19.6571 19.2854 20.7908 18.3549 22.1089 17.775C23.427 17.1951 24.8789 16.988 26.3066 17.1762C27.7342 17.3644 29.0829 17.9407 30.2056 18.8424C31.3284 19.744 32.1823 20.9365 32.6742 22.2898L45.6525 17.5797C43.9122 12.7997 40.5436 8.78562 36.138 6.24243C31.7324 3.69924 26.5717 2.78953 21.5621 3.67307C16.5525 4.55661 12.0143 7.1769 8.74459 11.0738C5.47486 14.9707 3.68262 19.8949 3.68262 24.9819C3.68262 30.0688 5.47486 34.9931 8.74459 38.89C12.0143 42.7868 16.5525 45.4071 21.5621 46.2907C26.5717 47.1742 31.7324 46.2645 36.138 43.7213C40.5436 41.1781 43.9122 37.164 45.6525 32.384L32.6742 27.6667C32.1235 29.1848 31.1186 30.4966 29.7961 31.4236C28.4737 32.3506 26.8979 32.8479 25.2829 32.8478Z" fill="#F2167D"/>
<path d="M34.8915 26.9058L29.5872 24.9783L34.8915 23.0507V26.9058Z" fill="#1B0273"/>
<path d="M47.464 26.9058L42.1597 24.9783L47.464 23.0507V26.9058Z" fill="#1B0273"/>
<path d="M47.464 22.3333L42.1597 20.4058L47.464 18.4783V22.3333Z" fill="#1B0273"/>
<path d="M47.464 31.4855L42.1597 29.5507L47.464 27.6232V31.4855Z" fill="#1B0273"/>
<path d="M41.1813 24.6087L35.877 22.6812L41.1813 20.7536V24.6087Z" fill="#1B0273"/>
<path d="M41.1813 29.1956L35.877 27.2681L41.1813 25.3406V29.1956Z" fill="#1B0273"/>
<path d="M86.9931 30.058C86.6711 31.4284 86.1093 32.731 85.3337 33.9058C84.5485 35.0992 83.5687 36.1524 82.4351 37.0217C81.2233 37.9468 79.8635 38.6598 78.4134 39.1304C74.773 40.2678 70.8501 40.1012 67.3192 38.6594C65.5566 37.9033 63.9663 36.7963 62.6453 35.4058C61.3579 34.0357 60.3533 32.4253 59.6888 30.6667C58.3295 27.0483 58.3167 23.0618 59.6525 19.4348C60.3031 17.6846 61.2875 16.0775 62.5511 14.7029C63.8776 13.2358 65.5031 12.0699 67.318 11.2837C69.1329 10.4975 71.0952 10.1092 73.0728 10.1449C74.9759 10.1128 76.8705 10.4069 78.6743 11.0145C80.2018 11.5354 81.6212 12.3311 82.8627 13.3623C84.0093 14.3291 84.9527 15.5138 85.638 16.8478C86.3309 18.1978 86.7891 19.6558 86.9931 21.1594H82.0946C81.9454 20.2056 81.629 19.2857 81.1598 18.442C80.6991 17.6175 80.0955 16.8814 79.3772 16.2681C78.635 15.6387 77.7857 15.1478 76.8699 14.8188C75.8486 14.458 74.7719 14.2789 73.6888 14.2898C72.1917 14.265 70.7075 14.5693 69.3409 15.1812C68.1132 15.7349 67.0166 16.5425 66.1235 17.5507C65.2517 18.547 64.5778 19.7005 64.138 20.9493C63.6802 22.2306 63.4473 23.5814 63.4496 24.942C63.4471 26.3483 63.6924 27.744 64.1743 29.0652C64.6258 30.3325 65.3282 31.4958 66.2395 32.4855C67.1666 33.4998 68.3009 34.303 69.5656 34.8406C71.0246 35.4285 72.587 35.7168 74.1598 35.6884C74.9943 35.6834 75.8222 35.5389 76.609 35.2609C77.4269 34.9737 78.1983 34.5684 78.8989 34.058C79.5981 33.5592 80.2186 32.9583 80.7395 32.2754C81.26 31.6048 81.6508 30.843 81.8917 30.029L86.9931 30.058Z" fill="#1B0273"/>
<path d="M98.8915 39.6522C97.4892 39.6742 96.0976 39.4053 94.8046 38.8623C93.6268 38.3608 92.5659 37.6206 91.6886 36.6884C90.8264 35.7754 90.1474 34.7053 89.6886 33.5362C88.7418 31.0934 88.7418 28.3849 89.6886 25.942C90.147 24.7663 90.8259 23.689 91.6886 22.7681C92.5659 21.8359 93.6268 21.0957 94.8046 20.5942C96.0976 20.0513 97.4892 19.7823 98.8915 19.8044C100.301 19.7827 101.699 20.0515 103 20.5942C104.191 21.0945 105.267 21.8345 106.16 22.7681C107.034 23.6844 107.721 24.7625 108.181 25.942C109.128 28.3849 109.128 31.0934 108.181 33.5362C107.72 34.7091 107.033 35.7801 106.16 36.6884C105.267 37.622 104.191 38.362 103 38.8623C101.699 39.405 100.301 39.6739 98.8915 39.6522ZM98.8915 35.7246C99.6815 35.7363 100.464 35.5704 101.181 35.2391C101.851 34.9327 102.451 34.4911 102.942 33.942C103.439 33.3886 103.823 32.7437 104.073 32.0435C104.614 30.5524 104.614 28.9187 104.073 27.4275C103.821 26.7281 103.437 26.0835 102.942 25.529C102.451 24.9799 101.851 24.5383 101.181 24.2319C100.464 23.9006 99.6815 23.7347 98.8915 23.7464C98.1084 23.7337 97.3327 23.8998 96.6234 24.2319C95.9621 24.5425 95.3705 24.9837 94.8843 25.529C94.391 26.081 94.014 26.7267 93.7756 27.4275C93.2537 28.9219 93.2537 30.5491 93.7756 32.0435C94.0115 32.74 94.3852 33.3819 94.8744 33.931C95.3637 34.48 95.9585 34.9249 96.6234 35.2391C97.3327 35.5713 98.1084 35.7373 98.8915 35.7246Z" fill="#1B0273"/>
<path d="M116.384 10.8333H111.971V39.1667H116.384V10.8333Z" fill="#1B0273"/>
<path d="M125.913 10.8333H121.5V39.1667H125.913V10.8333Z" fill="#1B0273"/>
<path d="M143.399 27.1884C143.307 26.2423 142.884 25.3592 142.203 24.6956C141.544 24.0652 140.457 23.7464 138.95 23.7464C138.18 23.7238 137.416 23.8905 136.725 24.2319C136.106 24.5474 135.566 24.9982 135.145 25.5507C134.707 26.1151 134.385 26.7602 134.196 27.4493C133.989 28.1948 133.887 28.9654 133.892 29.7391C133.888 30.5175 133.991 31.2927 134.196 32.0435C134.377 32.7354 134.7 33.382 135.145 33.942C135.59 34.498 136.158 34.9422 136.805 35.2391C137.567 35.5821 138.397 35.7481 139.232 35.7246C140.25 35.8091 141.264 35.5235 142.087 34.9203C142.748 34.319 143.23 33.5465 143.479 32.6884H147.826C147.668 33.6386 147.368 34.5596 146.935 35.4203C146.513 36.281 145.924 37.0495 145.203 37.6812C144.412 38.3292 143.504 38.821 142.529 39.1304C141.358 39.4983 140.134 39.6745 138.906 39.6522C137.507 39.6806 136.118 39.3985 134.841 38.8261C133.715 38.3147 132.708 37.5744 131.884 36.6522C131.083 35.7277 130.472 34.654 130.087 33.4927C129.68 32.296 129.474 31.0397 129.479 29.7754C129.477 28.5137 129.683 27.2604 130.087 26.0652C130.466 24.886 131.077 23.7945 131.884 22.8551C132.701 21.9341 133.7 21.1936 134.819 20.6812C136.089 20.1013 137.474 19.8165 138.87 19.8478C140.215 19.8165 141.554 20.0352 142.819 20.4927C143.822 20.8733 144.743 21.4441 145.529 22.1739C146.224 22.8366 146.774 23.636 147.145 24.5217C147.504 25.3808 147.729 26.29 147.812 27.2174L143.399 27.1884Z" fill="#1B0273"/>
<path d="M162.319 39.1667C161.971 39.2174 161.5 39.2754 160.906 39.3333C160.312 39.3913 159.689 39.413 159.044 39.413C158.42 39.4056 157.798 39.3572 157.181 39.2681C156.459 39.167 155.772 38.8964 155.174 38.4783C154.476 37.9693 153.926 37.2841 153.58 36.4927C153.091 35.317 152.868 34.0475 152.928 32.7754V23.9855H149.732V20.2898H152.928V14.6014H157.341V20.2898H161.689V23.9855H157.341V31.7319C157.323 32.3817 157.384 33.0313 157.522 33.6667C157.606 34.0778 157.796 34.46 158.073 34.7754C158.303 35.03 158.607 35.2072 158.942 35.2826C159.32 35.3684 159.707 35.4098 160.094 35.4058H161.312C161.652 35.4202 161.992 35.3786 162.319 35.2826V39.1667Z" fill="#1B0273"/>
<path d="M165.145 13.4203C165.142 12.8832 165.272 12.3538 165.523 11.879C165.774 11.4042 166.138 10.9987 166.584 10.6986C167.029 10.3985 167.542 10.2131 168.076 10.1588C168.611 10.1045 169.15 10.183 169.647 10.3874C170.143 10.5917 170.582 10.9156 170.923 11.3302C171.265 11.7448 171.498 12.2373 171.604 12.764C171.709 13.2907 171.682 13.8351 171.526 14.3491C171.371 14.8631 171.09 15.3306 170.71 15.7101C170.409 16.0203 170.047 16.2653 169.647 16.4298C169.246 16.5944 168.817 16.675 168.384 16.6667C167.525 16.6667 166.701 16.3254 166.094 15.7179C165.486 15.1105 165.145 14.2866 165.145 13.4275M166.196 20.3116H170.609V39.1522H166.196V20.3116Z" fill="#1B0273"/>
<path d="M177.877 20.3044L183.058 32.8551L188.326 20.3044H193.058L184.522 39.1667H181.566L173.145 20.3044H177.877Z" fill="#1B0273"/>
</g>
<defs>
<clipPath id="clip0_1_2804">
<rect width="240.58" height="50" fill="white"/>
</clipPath>
</defs>
</svg>
