<svg width="155" height="150" viewBox="0 0 155 150" fill="none" xmlns="http://www.w3.org/2000/svg">
<g clip-path="url(#clip0_1_2920)">
<path d="M105.115 72.6825C105.115 88.2185 92.5689 100.803 77.0799 100.803C61.591 100.803 49.0449 88.2185 49.0449 72.6825C49.0449 60.5385 56.7377 50.1812 67.5026 46.2455L50.7228 2.30421e-06C21.1131 10.7975 -0.00341943 39.2543 -0.00341797 72.6825C-0.0034161 115.38 34.5112 150 77.0799 150C119.649 150 154.163 115.38 154.163 72.6825C154.163 39.2802 133.021 10.8234 103.437 0L86.6572 46.2455C97.4221 50.1812 105.089 60.5127 105.089 72.6825" fill="#F2167D"/>
</g>
<defs>
<clipPath id="clip0_1_2920">
<rect width="154.167" height="150" fill="white" transform="translate(-0.00341797)"/>
</clipPath>
</defs>
</svg>
