<svg width="152" height="35" viewBox="0 0 152 35" fill="none" xmlns="http://www.w3.org/2000/svg">
<g clip-path="url(#clip0_1_2781)">
<path d="M18.0223 23.3753C14.5806 23.3753 11.7878 20.5847 11.7878 17.1408C11.7878 13.6969 14.5784 10.9063 18.0223 10.9063C20.7158 10.9063 23.0104 12.6137 23.8806 15.0075L34.1337 11.2763C31.7399 4.69863 25.431 0 18.0223 0C8.55478 0 0.879456 7.67533 0.879456 17.1429C0.879456 26.6104 8.55478 34.2857 18.0223 34.2857C25.4289 34.2857 31.7399 29.5871 34.1358 23.0073L23.8827 19.2761C23.0124 21.6699 20.7178 23.3774 18.0243 23.3774" fill="#F2167D"/>
<path d="M25.6356 18.6713L21.4353 17.1437L25.6356 15.6161V18.6713Z" fill="white"/>
<path d="M35.5955 18.6713L31.3951 17.1437L35.5955 15.6161V18.6713Z" fill="white"/>
<path d="M35.5955 15.0394L31.3951 13.5119L35.5955 11.9822V15.0394Z" fill="white"/>
<path d="M35.5955 22.2963L31.3951 20.7687L35.5955 19.241V22.2963Z" fill="white"/>
<path d="M30.6156 16.843L26.4152 15.3154L30.6156 13.7857V16.843Z" fill="white"/>
<path d="M30.6156 20.4858L26.4152 18.9562L30.6156 17.4286V20.4858Z" fill="white"/>
<path d="M67.6635 21.1535C67.4072 22.243 66.9689 23.26 66.3488 24.2006C65.7287 25.141 64.9596 25.9638 64.0398 26.6687C63.1199 27.3736 62.0616 27.9255 60.8647 28.3203C59.6657 28.7152 58.3841 28.9115 57.0156 28.9115C55.1759 28.9115 53.5324 28.5911 52.0793 27.9503C50.624 27.3095 49.3899 26.4475 48.3749 25.3685C47.3579 24.2873 46.5786 23.0387 46.0329 21.6186C45.4872 20.1965 45.2143 18.6957 45.2143 17.1122C45.2143 15.5288 45.4747 14.1294 45.9998 12.7175C46.5227 11.3077 47.2815 10.0571 48.2757 8.96771C49.27 7.87626 50.4668 7.00598 51.8664 6.35277C53.2658 5.69955 54.8533 5.375 56.629 5.375C58.2972 5.375 59.7753 5.60446 61.0692 6.06337C62.3612 6.52227 63.4672 7.14449 64.3871 7.92173C65.3069 8.70311 66.0387 9.62093 66.5844 10.6814C67.1281 11.7398 67.4878 12.8767 67.6594 14.0963H63.7793C63.6512 13.3253 63.399 12.6101 63.0248 11.9465C62.6506 11.2829 62.1793 10.7124 61.613 10.2328C61.0466 9.75116 60.3829 9.37081 59.6243 9.0938C58.8657 8.81681 58.0243 8.67625 57.1066 8.67625C55.8228 8.67625 54.6736 8.91396 53.6586 9.38114C52.6416 9.85245 51.792 10.4788 51.1077 11.256C50.4256 12.0374 49.9004 12.9366 49.5367 13.9515C49.1729 14.9687 48.9909 16.0187 48.9909 17.1102C48.9909 18.2657 49.177 19.3551 49.5532 20.3805C49.9274 21.4078 50.4711 22.3112 51.1883 23.0905C51.9035 23.8719 52.7924 24.4858 53.8508 24.9365C54.9092 25.385 56.1205 25.6103 57.489 25.6103C58.1298 25.6103 58.7768 25.4966 59.43 25.2734C60.0833 25.048 60.6848 24.7379 61.2409 24.3432C61.7969 23.9463 62.2827 23.477 62.7003 22.9313C63.1178 22.3856 63.4217 21.7923 63.6139 21.1514H67.6552L67.6635 21.1535Z" fill="white"/>
<path d="M77.0916 28.755C75.8947 28.755 74.8136 28.5462 73.8523 28.1307C72.8912 27.7111 72.0684 27.1406 71.3842 26.415C70.7 25.6873 70.1707 24.8543 69.7967 23.9137C69.4225 22.9731 69.2344 21.9686 69.2344 20.8998C69.2344 19.8311 69.4204 18.8513 69.7967 17.9024C70.1707 16.9515 70.7 16.1123 71.3842 15.3847C72.0684 14.6591 72.8912 14.0865 73.8523 13.6689C74.8136 13.2534 75.8947 13.0447 77.0916 13.0447C78.2884 13.0447 79.3737 13.2534 80.3452 13.6689C81.3168 14.0886 82.152 14.6591 82.8465 15.3847C83.5391 16.1123 84.0764 16.9515 84.4485 17.9024C84.8227 18.8513 85.0108 19.8538 85.0108 20.8998C85.0108 21.9458 84.8248 22.9731 84.4485 23.9137C84.0744 24.8563 83.5391 25.6894 82.8465 26.415C82.152 27.1426 81.3168 27.7131 80.3452 28.1307C79.3737 28.5462 78.2884 28.755 77.0916 28.755ZM77.0916 25.6439C77.7552 25.6439 78.3587 25.5158 78.9024 25.2594C79.4481 25.0031 79.9132 24.662 80.2977 24.232C80.6823 23.8062 80.9819 23.3039 81.1969 22.7251C81.4098 22.1483 81.5194 21.5385 81.5194 20.8977C81.5194 20.2569 81.412 19.6471 81.1969 19.0704C80.984 18.4936 80.6843 17.9913 80.2977 17.5634C79.9132 17.1355 79.4481 16.7923 78.9024 16.536C78.3587 16.2798 77.7531 16.1515 77.0916 16.1515C76.4301 16.1515 75.8285 16.2798 75.2952 16.536C74.7619 16.7923 74.3009 17.1355 73.9185 17.5634C73.534 17.9913 73.2384 18.4936 73.0359 19.0704C72.8332 19.6491 72.7299 20.2569 72.7299 20.8977C72.7299 21.5385 72.8312 22.1483 73.0359 22.7251C73.2384 23.3039 73.534 23.8062 73.9185 24.232C74.3029 24.662 74.7619 25.0031 75.2952 25.2594C75.8285 25.5158 76.428 25.6439 77.0916 25.6439Z" fill="white"/>
<path d="M90.9432 5.91965H87.4498V28.3667H90.9432V5.91965Z" fill="white"/>
<path d="M98.4988 5.91965H95.0033V28.3667H98.4988V5.91965Z" fill="white"/>
<path d="M112.353 18.8823C112.245 18.0698 111.931 17.4126 111.406 16.9102C110.883 16.4079 110.023 16.1577 108.824 16.1577C108.14 16.1577 107.553 16.2859 107.061 16.5423C106.567 16.7986 106.151 17.1458 105.808 17.5862C105.467 18.0245 105.217 18.5267 105.056 19.0931C104.894 19.6595 104.814 20.2631 104.814 20.9039C104.814 21.5448 104.894 22.1545 105.056 22.7313C105.217 23.3101 105.467 23.8124 105.808 24.2383C106.151 24.6682 106.589 25.0093 107.123 25.2656C107.656 25.5219 108.299 25.6501 109.047 25.6501C110.075 25.6501 110.827 25.4351 111.309 25.0093C111.79 24.5814 112.148 23.9943 112.384 23.244H115.879C115.751 24.015 115.515 24.7365 115.175 25.4082C114.831 26.0822 114.368 26.6713 113.779 27.1736C113.192 27.6759 112.487 28.0666 111.664 28.3436C110.84 28.6206 109.884 28.7611 108.793 28.7611C107.576 28.7611 106.501 28.5421 105.57 28.1017C104.64 27.6656 103.861 27.0806 103.228 26.355C102.598 25.6273 102.122 24.7943 101.802 23.8537C101.479 22.9132 101.32 21.9292 101.32 20.9039C101.32 19.8786 101.479 18.9216 101.802 17.9686C102.122 17.0198 102.598 16.1804 103.228 15.4508C103.859 14.7252 104.634 14.1423 105.554 13.7041C106.472 13.2658 107.542 13.0447 108.76 13.0447C109.977 13.0447 111.021 13.2183 111.888 13.5593C112.752 13.9025 113.469 14.3449 114.035 14.8906C114.602 15.4363 115.03 16.0564 115.317 16.7511C115.605 17.4456 115.782 18.1567 115.846 18.8823H112.351H112.353Z" fill="white"/>
<path d="M127.362 28.3729C127.086 28.4164 126.71 28.4598 126.24 28.501C125.769 28.5445 125.279 28.5652 124.766 28.5652C124.338 28.5652 123.847 28.528 123.293 28.4535C122.736 28.3791 122.207 28.1703 121.705 27.8293C121.2 27.4882 120.778 26.9631 120.438 26.2582C120.095 25.5534 119.925 24.5694 119.925 23.3084V16.3484H117.391V13.4316H119.925V8.91074H123.418V13.4316H126.85V16.3484H123.418V22.4837C123.418 23.1245 123.466 23.635 123.563 24.0175C123.658 24.402 123.803 24.6934 123.995 24.896C124.187 25.0985 124.417 25.2329 124.683 25.297C124.952 25.361 125.256 25.3921 125.598 25.3921H126.56C126.922 25.3921 127.191 25.361 127.362 25.297V28.375V28.3729Z" fill="white"/>
<path d="M129.575 7.97341C129.575 7.24578 129.827 6.63183 130.329 6.12745C130.832 5.62719 131.435 5.375 132.141 5.375C132.845 5.375 133.481 5.62719 133.984 6.12745C134.487 6.63183 134.738 7.24578 134.738 7.97341C134.738 8.70105 134.487 9.28191 133.984 9.78423C133.481 10.2866 132.867 10.5367 132.141 10.5367C131.413 10.5367 130.832 10.2866 130.329 9.78423C129.827 9.28191 129.575 8.6783 129.575 7.97341ZM130.408 13.4245H133.903V28.3679H130.408V13.4245Z" fill="white"/>
<path d="M139.666 13.4196L143.771 23.3606L147.941 13.4196H151.69L144.925 28.3631H142.585L135.914 13.4196H139.666Z" fill="white"/>
</g>
<defs>
<clipPath id="clip0_1_2781">
<rect width="152" height="34.2857" fill="white"/>
</clipPath>
</defs>
</svg>
